<svg width="76" height="76" viewBox="0 0 76 76" fill="none" xmlns="http://www.w3.org/2000/svg">
<path d="M5.7 76C4.18 76 2.85 75.4 1.71 74.2C0.57 73 0 71.6 0 70V22C0 20.4 0.57 19 1.71 17.8C2.85 16.6 4.18 16 5.7 16H22.8V6C22.8 4.4 23.37 3 24.51 1.8C25.65 0.6 26.98 0 28.5 0H47.5C49.02 0 50.35 0.6 51.49 1.8C52.63 3 53.2 4.4 53.2 6V16H70.3C71.82 16 73.15 16.6 74.29 17.8C75.43 19 76 20.4 76 22V70C76 71.6 75.43 73 74.29 74.2C73.15 75.4 71.82 76 70.3 76H5.7ZM28.5 16H47.5V6H28.5V16ZM70.3 50.9H46.645V56.9H29.545V50.9H5.7V70H70.3V50.9ZM35.245 50.9H40.945V44.9H35.245V50.9ZM5.7 44.9H29.545V38.9H46.645V44.9H70.3V22H5.7V44.9Z" fill="#28292B"/>
</svg>
